<svg xmlns="http://www.w3.org/2000/svg" xmlns:xlink="http://www.w3.org/1999/xlink" width="30" height="30" viewBox="0 0 30 30"><defs><linearGradient id="a" y1="0.5" x2="1" y2="0.5" gradientUnits="objectBoundingBox"><stop offset="0" stop-color="#fcb553"/><stop offset="1" stop-color="#f5877a"/></linearGradient></defs><path d="M15,0A15,15,0,1,1,0,15,15,15,0,0,1,15,0Z" fill="url(#a)"/><path d="M13.544-11.291a4.006,4.006,0,0,0-5.467.4L7.5-10.3l-.577-.595a4.006,4.006,0,0,0-5.467-.4A4.207,4.207,0,0,0,1.166-5.2L6.835.653a.918.918,0,0,0,1.327,0L13.831-5.2A4.2,4.2,0,0,0,13.544-11.291Z" transform="translate(7.5 21.5)" fill="#fff"/></svg>
